<svg width="643" height="72" viewBox="0 0 643 72" fill="none" xmlns="http://www.w3.org/2000/svg">
<path d="M59.0016 -0.00078249V17.2992H21.5016V26.1992H55.5016V42.6992H21.5016V53.0992H60.0016V71.1992H0.00156291V-0.00078249H59.0016ZM153.012 -0.00078249L152.912 71.1992H132.412V60.4992C132.412 47.8992 132.712 34.3992 133.212 19.9992L119.812 71.1992H103.512L90.0117 19.9992C90.5117 30.7992 90.8117 43.2992 90.9117 57.4992L91.0117 71.1992H70.5117V-0.00078249H101.812L106.412 18.4992C108.812 28.4992 110.612 37.4992 111.912 45.4992C112.912 39.7992 114.912 30.5992 117.912 17.9992L122.312 -0.00078249H153.012ZM186.545 -0.00078249V71.1992H164.745V-0.00078249H186.545ZM251.546 52.5992V71.1992H198.046V-0.00078249H219.946V52.5992H251.546ZM294.533 -0.00078249H330.433C347.233 -0.00078249 355.733 5.99922 355.733 17.7992C355.733 23.7992 352.733 28.5992 346.833 32.0992C355.033 34.9992 359.233 40.7992 359.233 49.5992C359.233 53.5992 358.433 57.0992 356.933 59.9992C355.433 62.8992 353.333 65.0992 350.733 66.6992C348.033 68.2992 345.133 69.4992 342.133 70.1992C339.033 70.8992 335.633 71.1992 331.933 71.1992H294.533V-0.00078249ZM315.733 16.1992V27.2992H328.033C330.033 27.2992 331.633 26.7992 332.833 25.7992C334.033 24.7992 334.633 23.4992 334.633 21.7992C334.633 18.0992 332.033 16.1992 327.033 16.1992H315.733ZM315.733 40.9992V54.3992H329.233C334.733 54.3992 337.533 52.1992 337.533 47.7992C337.533 43.1992 334.733 40.9992 329.233 40.9992H315.733ZM427.654 -0.00078249V17.2992H390.154V26.1992H424.154V42.6992H390.154V53.0992H428.654V71.1992H368.654V-0.00078249H427.654ZM502.664 -0.00078249L477.164 45.4992V71.1992H455.664V44.9992L430.264 -0.00078249H454.464L459.764 11.2992C463.264 18.8992 465.464 24.1992 466.464 26.9992C468.064 22.6992 470.664 16.9992 474.064 9.79922L478.764 -0.00078249H502.664ZM564.763 -0.00078249V17.2992H527.263V26.1992H561.263V42.6992H527.263V53.0992H565.763V71.1992H505.763V-0.00078249H564.763ZM575.973 -0.00078249L614.273 0.0992162C617.273 0.0992162 620.173 0.399218 622.973 1.09922C625.773 1.69921 628.473 2.79922 631.073 4.29922C633.673 5.79921 635.673 7.99922 637.273 10.8992C638.873 13.6992 639.673 17.0992 639.673 21.0992C639.673 24.8992 638.673 28.3992 636.773 31.5992C634.873 34.6992 632.373 36.9992 629.173 38.4992C632.373 39.2992 634.773 41.3992 636.473 44.8992C638.073 48.2992 639.173 52.0992 639.573 56.0992L640.273 63.5992C640.573 67.3992 641.173 69.8992 642.073 71.2992H620.473C619.873 69.9992 619.373 67.7992 619.173 64.5992L618.873 60.5992C618.673 58.1992 618.373 56.1992 618.073 54.7992C617.773 53.2992 617.273 51.7992 616.473 50.3992C615.673 48.8992 614.473 47.7992 612.873 47.0992C611.273 46.4992 609.173 46.0992 606.773 46.0992H597.573V71.1992H575.973V-0.00078249ZM597.573 16.5992V31.1992H609.573C615.473 31.1992 618.473 28.6992 618.473 23.7992C618.473 18.9992 615.073 16.5992 608.373 16.5992H597.573Z" fill="black"/>
</svg>
