<svg width="684" height="86" viewBox="0 0 684 86" fill="none" xmlns="http://www.w3.org/2000/svg">
<path d="M21.6011 32.8808H59.0411V50.5208H21.6011V68.1608H65.7611V85.8008H0.00109404V0.000777245H65.0411V17.6408H21.6011V32.8808ZM75.3527 85.8008V0.000777245H101.753L119.393 54.7208H119.633L137.273 0.000777245H163.673V85.8008H143.273V32.4008H143.033L127.073 85.8008H111.953L95.9927 32.4008H95.7527V85.8008H75.3527ZM175.551 0.000777245H197.151V85.8008H175.551V0.000777245ZM208.946 0.000777245H230.546V68.1608H268.706V85.8008H208.946V0.000777245ZM366.069 21.6008C366.069 32.1608 359.829 37.4408 352.749 39.8408V40.0808C361.749 41.6408 369.429 47.6408 369.429 60.4808C369.429 78.7208 357.789 85.8008 340.029 85.8008H297.189V0.000777245H338.829C356.709 0.000777245 366.069 6.96078 366.069 21.6008ZM318.789 34.6808H333.669C339.669 34.6808 344.469 33.2408 344.469 26.1608C344.469 19.0808 339.669 17.6408 333.669 17.6408H318.789V34.6808ZM318.789 47.8808V68.1608H334.269C343.269 68.1608 347.829 66.0008 347.829 57.9608C347.829 49.9208 343.269 47.8808 334.269 47.8808H318.789ZM399.296 32.8808H436.736V50.5208H399.296V68.1608H443.456V85.8008H377.696V0.000777245H442.736V17.6408H399.296V32.8808ZM447.288 0.000777245H470.088L486.768 35.2808H487.008L503.808 0.000777245H526.608L497.688 54.1208V85.8008H476.088V54.1208L447.288 0.000777245ZM554.218 32.8808H591.658V50.5208H554.218V68.1608H598.378V85.8008H532.618V0.000777245H597.658V17.6408H554.218V32.8808ZM607.97 85.8008V0.000777245H648.41C667.49 0.000777245 679.01 8.76078 679.01 24.9608C679.01 36.3608 672.29 43.5608 661.61 45.9608V46.2008C683.09 49.9208 675.29 83.1608 680.21 84.6008V85.8008H657.77C653.57 82.2008 661.37 55.9208 643.01 55.9208H629.57V85.8008H607.97ZM629.57 17.6408V38.2808H644.21C652.85 38.2808 657.41 35.1608 657.41 27.9608C657.41 20.7608 652.85 17.6408 644.21 17.6408H629.57Z" fill="white"/>
</svg>
