<svg width="600" height="700" viewBox="0 0 600 700" fill="none" xmlns="http://www.w3.org/2000/svg">
<path d="M309.975 9.97461C318.608 1.34146 331.392 1.34146 340.025 9.97461C348.659 18.6078 348.659 31.3922 340.025 40.0254L257.525 122.525L255.05 125L257.525 127.475L340.025 209.975C348.659 218.608 348.659 231.392 340.025 240.025C337.732 242.319 335.577 243.899 333.266 244.927C330.969 245.947 328.341 246.5 325 246.5C321.659 246.5 319.031 245.947 316.734 244.927C314.423 243.899 312.268 242.319 309.975 240.025L209.975 140.025C201.341 131.392 201.341 118.608 209.975 109.975L309.975 9.97461Z" stroke="white" stroke-width="7"/>
<path d="M300 103.5C463.067 103.5 596.5 236.933 596.5 400C596.5 563.067 463.067 696.5 300 696.5C136.933 696.5 3.5 563.067 3.5 400C3.5 325.872 30.6709 254.262 82.501 199.947C91.1129 191.362 103.999 191.275 112.7 197.653C121.155 206.282 121.187 219.103 114.806 227.754C69.2705 275.901 46.5 336.707 46.5 400C46.5 539.433 160.567 653.5 300 653.5C439.433 653.5 553.5 539.433 553.5 400C553.5 260.567 439.433 146.5 300 146.5H283.603C279.685 142.021 276.346 138.908 272.994 135.67C269.88 132.661 266.671 129.466 262.747 124.774C267.474 120.156 270.618 116.797 273.501 113.696C276.568 110.398 279.313 107.43 283.406 103.5H300Z" stroke="white" stroke-width="7"/>
</svg>
