<svg width="187" height="198" viewBox="0 0 187 198" fill="none" xmlns="http://www.w3.org/2000/svg">
<path d="M158.339 134.66C166.598 134.66 173.292 141.365 173.292 149.645C173.292 157.924 166.597 164.629 158.339 164.629C152.537 164.629 147.502 161.322 145.029 156.473L144.699 155.825L143.981 155.939C119.103 159.893 102.264 171.424 88.4463 180.868H88.4453C76.746 188.872 67.0774 195.458 56.8311 196.763C46.7159 198.051 35.8137 194.19 21.6777 180.586L21.21 180.137L20.6094 180.38C18.8129 181.106 16.8976 181.483 14.9697 181.483H14.9531C6.69459 181.483 0.000263207 174.778 0 166.499C0 158.219 6.69443 151.515 14.9531 151.515C23.2119 151.515 29.9062 158.219 29.9062 166.499V166.515C29.9062 168.614 29.4694 170.669 28.624 172.59L28.3369 173.243L28.8613 173.728C39.8924 183.9 48.8436 186.933 57.4551 185.639C64.8733 184.524 71.8877 180.2 79.5664 174.998L82.9014 172.722C97.9143 162.447 115.907 150.145 143.193 146.073L143.822 145.979L144.004 145.369C145.844 139.174 151.574 134.66 158.339 134.66ZM170.484 62.7002L148.493 117.279C110.848 127.776 75.7593 143.017 42.6191 161.873L36.9287 154.794L102.122 90.0283C103.406 90.5207 104.767 90.7676 106.138 90.7676H106.153C112.432 90.7676 117.51 85.6772 117.51 79.3906C117.51 73.121 112.434 68.0137 106.153 68.0137C99.8912 68.0138 94.7969 73.1029 94.7969 79.3906C94.7969 81.1434 95.1922 82.8079 95.9043 84.291L31.4873 148.423L23.6953 141.291C43.471 108.716 58.6292 74.005 68.7461 36.9082L123.374 14.0762L170.484 62.7002ZM184.602 47.7412L181.072 51.1846L177.542 54.627L132.413 8.28418L135.944 4.84082L135.943 4.83984L139.472 1.41309L184.602 47.7412Z" stroke="white" stroke-width="2"/>
</svg>
